<mxfile host="app.diagrams.net" modified="2023-10-22T08:33:32.351Z" agent="Mozilla/5.0 (Windows NT 10.0; Win64; x64; rv:109.0) Gecko/20100101 Firefox/118.0" etag="Ngl5atuLI76-tbPO1w9g" version="22.0.6" type="github">
  <diagram name="第 1 页" id="ClyOsVzj6frhT0d5uaz9">
    <mxGraphModel dx="2420" dy="838" grid="1" gridSize="10" guides="1" tooltips="1" connect="1" arrows="1" fold="1" page="1" pageScale="1" pageWidth="827" pageHeight="1169" math="0" shadow="0">
      <root>
        <mxCell id="0" />
        <mxCell id="1" parent="0" />
        <mxCell id="SAjAbMaW2R_z1P-nCRgh-23" value="" style="rounded=1;whiteSpace=wrap;html=1;fillColor=#f5f5f5;fontColor=#333333;strokeColor=#666666;" vertex="1" parent="1">
          <mxGeometry x="-64" y="20" width="1010" height="740" as="geometry" />
        </mxCell>
        <mxCell id="SAjAbMaW2R_z1P-nCRgh-12" value="" style="rounded=0;whiteSpace=wrap;html=1;fillColor=#E1D5E7;" vertex="1" parent="1">
          <mxGeometry x="172" y="50" width="494" height="680" as="geometry" />
        </mxCell>
        <mxCell id="SaRvt7RB1hY5MqPePfqr-26" value="" style="rounded=0;whiteSpace=wrap;html=1;dashed=1;dashPattern=8 8;" parent="1" vertex="1">
          <mxGeometry x="718" y="287" width="200" height="270" as="geometry" />
        </mxCell>
        <mxCell id="SaRvt7RB1hY5MqPePfqr-4" value="" style="shape=link;html=1;rounded=0;" parent="1" edge="1">
          <mxGeometry width="100" relative="1" as="geometry">
            <mxPoint x="-54" y="190" as="sourcePoint" />
            <mxPoint x="936" y="190" as="targetPoint" />
          </mxGeometry>
        </mxCell>
        <mxCell id="SaRvt7RB1hY5MqPePfqr-5" value="" style="endArrow=none;dashed=1;html=1;rounded=0;fillColor=#dae8fc;strokeColor=#6c8ebf;strokeWidth=1;dashPattern=12 12;" parent="1" edge="1">
          <mxGeometry width="50" height="50" relative="1" as="geometry">
            <mxPoint x="155" y="730" as="sourcePoint" />
            <mxPoint x="155" y="40" as="targetPoint" />
          </mxGeometry>
        </mxCell>
        <mxCell id="SaRvt7RB1hY5MqPePfqr-6" value="" style="endArrow=none;dashed=1;html=1;rounded=0;fillColor=#fff2cc;strokeColor=#d6b656;strokeWidth=2;exitX=0.5;exitY=0;exitDx=0;exitDy=0;" parent="1" edge="1">
          <mxGeometry width="50" height="50" relative="1" as="geometry">
            <mxPoint x="436" y="618" as="sourcePoint" />
            <mxPoint x="436" y="40" as="targetPoint" />
          </mxGeometry>
        </mxCell>
        <mxCell id="SaRvt7RB1hY5MqPePfqr-7" value="&lt;b&gt;&lt;font style=&quot;font-size: 15px;&quot;&gt;APP&lt;/font&gt;&lt;/b&gt;" style="ellipse;whiteSpace=wrap;html=1;fillColor=#dae8fc;strokeColor=#6c8ebf;" parent="1" vertex="1">
          <mxGeometry x="-14" y="80" width="120" height="80" as="geometry" />
        </mxCell>
        <mxCell id="SaRvt7RB1hY5MqPePfqr-8" value="&lt;font style=&quot;font-size: 15px;&quot;&gt;&lt;b&gt;Wrapper&lt;/b&gt;&lt;/font&gt;" style="ellipse;whiteSpace=wrap;html=1;fillColor=#d5e8d4;strokeColor=#82b366;" parent="1" vertex="1">
          <mxGeometry x="246" y="80" width="120" height="80" as="geometry" />
        </mxCell>
        <mxCell id="SaRvt7RB1hY5MqPePfqr-9" value="&lt;font style=&quot;font-size: 15px;&quot;&gt;&lt;b&gt;TelAF&lt;/b&gt;&lt;/font&gt;" style="ellipse;whiteSpace=wrap;html=1;fillColor=#ffe6cc;strokeColor=#d79b00;" parent="1" vertex="1">
          <mxGeometry x="752" y="80" width="120" height="80" as="geometry" />
        </mxCell>
        <mxCell id="SaRvt7RB1hY5MqPePfqr-11" value="&lt;font style=&quot;font-size: 13px;&quot;&gt;&lt;b&gt;Nadif_get_xxx_data()&lt;/b&gt;&lt;/font&gt;" style="rounded=1;whiteSpace=wrap;html=1;" parent="1" vertex="1">
          <mxGeometry x="-44" y="298" width="150" height="60" as="geometry" />
        </mxCell>
        <mxCell id="SaRvt7RB1hY5MqPePfqr-12" value="" style="endArrow=classic;html=1;rounded=0;exitX=1;exitY=0.5;exitDx=0;exitDy=0;" parent="1" source="SaRvt7RB1hY5MqPePfqr-11" edge="1">
          <mxGeometry width="50" height="50" relative="1" as="geometry">
            <mxPoint x="316" y="478" as="sourcePoint" />
            <mxPoint x="206" y="328" as="targetPoint" />
          </mxGeometry>
        </mxCell>
        <mxCell id="SaRvt7RB1hY5MqPePfqr-13" value="&lt;font style=&quot;font-size: 13px;&quot;&gt;&lt;b&gt;Telaf_get_xxx_data()&lt;/b&gt;&lt;/font&gt;" style="rounded=1;whiteSpace=wrap;html=1;" parent="1" vertex="1">
          <mxGeometry x="220" y="298" width="136" height="60" as="geometry" />
        </mxCell>
        <mxCell id="SaRvt7RB1hY5MqPePfqr-14" value="" style="endArrow=classic;html=1;rounded=0;" parent="1" edge="1">
          <mxGeometry width="50" height="50" relative="1" as="geometry">
            <mxPoint x="656" y="328" as="sourcePoint" />
            <mxPoint x="716" y="328" as="targetPoint" />
          </mxGeometry>
        </mxCell>
        <mxCell id="SaRvt7RB1hY5MqPePfqr-17" value="" style="edgeStyle=orthogonalEdgeStyle;rounded=0;orthogonalLoop=1;jettySize=auto;html=1;" parent="1" source="SaRvt7RB1hY5MqPePfqr-15" target="SaRvt7RB1hY5MqPePfqr-16" edge="1">
          <mxGeometry relative="1" as="geometry" />
        </mxCell>
        <mxCell id="SaRvt7RB1hY5MqPePfqr-15" value="&lt;font style=&quot;font-size: 13px;&quot; color=&quot;#0000ff&quot;&gt;&lt;b&gt;taf_service_connect()&lt;/b&gt;&lt;/font&gt;" style="rounded=1;whiteSpace=wrap;html=1;" parent="1" vertex="1">
          <mxGeometry x="726" y="298" width="176" height="40" as="geometry" />
        </mxCell>
        <mxCell id="SaRvt7RB1hY5MqPePfqr-19" value="" style="edgeStyle=orthogonalEdgeStyle;rounded=0;orthogonalLoop=1;jettySize=auto;html=1;" parent="1" source="SaRvt7RB1hY5MqPePfqr-16" target="SaRvt7RB1hY5MqPePfqr-18" edge="1">
          <mxGeometry relative="1" as="geometry" />
        </mxCell>
        <mxCell id="SaRvt7RB1hY5MqPePfqr-16" value="&lt;font style=&quot;font-size: 13px;&quot; color=&quot;#0000ff&quot;&gt;&lt;b&gt;taf_net_registration()&lt;/b&gt;&lt;/font&gt;" style="rounded=1;whiteSpace=wrap;html=1;" parent="1" vertex="1">
          <mxGeometry x="726" y="368" width="176" height="40" as="geometry" />
        </mxCell>
        <mxCell id="SaRvt7RB1hY5MqPePfqr-18" value="&lt;font style=&quot;font-size: 13px;&quot;&gt;&lt;b&gt;...&lt;/b&gt;&lt;/font&gt;" style="rounded=1;whiteSpace=wrap;html=1;" parent="1" vertex="1">
          <mxGeometry x="725" y="433" width="176" height="36" as="geometry" />
        </mxCell>
        <mxCell id="SaRvt7RB1hY5MqPePfqr-20" value="&lt;font style=&quot;font-size: 13px;&quot; color=&quot;#0000ff&quot;&gt;&lt;b&gt;taf_get_xxx_data()&lt;/b&gt;&lt;/font&gt;" style="rounded=1;whiteSpace=wrap;html=1;" parent="1" vertex="1">
          <mxGeometry x="725" y="498" width="176" height="40" as="geometry" />
        </mxCell>
        <mxCell id="SaRvt7RB1hY5MqPePfqr-21" value="" style="edgeStyle=orthogonalEdgeStyle;rounded=0;orthogonalLoop=1;jettySize=auto;html=1;" parent="1" edge="1">
          <mxGeometry relative="1" as="geometry">
            <mxPoint x="812.5" y="474" as="sourcePoint" />
            <mxPoint x="811.5" y="498" as="targetPoint" />
          </mxGeometry>
        </mxCell>
        <mxCell id="SaRvt7RB1hY5MqPePfqr-30" value="&lt;font color=&quot;#ea6b66&quot;&gt;&lt;b&gt;xxx_data&lt;/b&gt;&lt;/font&gt;" style="text;html=1;strokeColor=none;fillColor=none;align=center;verticalAlign=middle;whiteSpace=wrap;rounded=0;" parent="1" vertex="1">
          <mxGeometry x="812" y="584" width="60" height="30" as="geometry" />
        </mxCell>
        <mxCell id="SaRvt7RB1hY5MqPePfqr-31" value="&lt;font style=&quot;font-size: 13px;&quot; color=&quot;#ea6b66&quot;&gt;&lt;b&gt;make_response_data()&lt;/b&gt;&lt;/font&gt;" style="rounded=1;whiteSpace=wrap;html=1;" parent="1" vertex="1">
          <mxGeometry x="466" y="620" width="180" height="60" as="geometry" />
        </mxCell>
        <mxCell id="SaRvt7RB1hY5MqPePfqr-35" value="" style="endArrow=none;dashed=1;html=1;rounded=0;fillColor=#fff2cc;strokeColor=#d6b656;strokeWidth=2;entryX=1;entryY=1;entryDx=0;entryDy=0;" parent="1" edge="1">
          <mxGeometry width="50" height="50" relative="1" as="geometry">
            <mxPoint x="436" y="740" as="sourcePoint" />
            <mxPoint x="436" y="623" as="targetPoint" />
          </mxGeometry>
        </mxCell>
        <mxCell id="SaRvt7RB1hY5MqPePfqr-38" value="&lt;font style=&quot;font-size: 13px;&quot;&gt;&lt;b&gt;Do_Process()&lt;/b&gt;&lt;/font&gt;" style="rounded=1;whiteSpace=wrap;html=1;" parent="1" vertex="1">
          <mxGeometry x="-44" y="618" width="160" height="60" as="geometry" />
        </mxCell>
        <mxCell id="SaRvt7RB1hY5MqPePfqr-39" value="" style="endArrow=classic;html=1;rounded=0;" parent="1" edge="1">
          <mxGeometry width="50" height="50" relative="1" as="geometry">
            <mxPoint x="252" y="652" as="sourcePoint" />
            <mxPoint x="126" y="652" as="targetPoint" />
          </mxGeometry>
        </mxCell>
        <mxCell id="SaRvt7RB1hY5MqPePfqr-40" value="&lt;div&gt;&lt;font color=&quot;#007fff&quot;&gt;&lt;b&gt;event_xxx_arrived&lt;/b&gt;&lt;/font&gt;&lt;/div&gt;" style="text;html=1;strokeColor=none;fillColor=none;align=center;verticalAlign=middle;whiteSpace=wrap;rounded=0;" parent="1" vertex="1">
          <mxGeometry x="157" y="620" width="60" height="30" as="geometry" />
        </mxCell>
        <mxCell id="SaRvt7RB1hY5MqPePfqr-41" value="&lt;div align=&quot;left&quot;&gt;&lt;ul&gt;&lt;li&gt;service_register&lt;/li&gt;&lt;li&gt;&lt;div&gt;event_bind(&lt;b&gt;&lt;font color=&quot;#ff8000&quot;&gt;app_callback&lt;/font&gt;&lt;/b&gt;)&lt;/div&gt;&lt;/li&gt;&lt;li&gt;...&lt;br&gt;&lt;/li&gt;&lt;/ul&gt;&lt;/div&gt;" style="rounded=0;whiteSpace=wrap;html=1;align=left;dashed=1;dashPattern=8 8;" parent="1" vertex="1">
          <mxGeometry x="220" y="200" width="196" height="70" as="geometry" />
        </mxCell>
        <mxCell id="SaRvt7RB1hY5MqPePfqr-43" value="" style="shape=flexArrow;endArrow=classic;html=1;rounded=0;" parent="1" edge="1">
          <mxGeometry width="50" height="50" relative="1" as="geometry">
            <mxPoint x="136" y="240" as="sourcePoint" />
            <mxPoint x="216" y="240" as="targetPoint" />
          </mxGeometry>
        </mxCell>
        <mxCell id="SaRvt7RB1hY5MqPePfqr-44" value="&lt;b&gt;&lt;font color=&quot;#ff8000&quot;&gt;app_callback(event, resp_data)&lt;/font&gt;&lt;/b&gt;" style="ellipse;whiteSpace=wrap;html=1;dashed=1;dashPattern=8 8;" parent="1" vertex="1">
          <mxGeometry x="-14" y="213" width="140" height="57" as="geometry" />
        </mxCell>
        <mxCell id="SaRvt7RB1hY5MqPePfqr-47" value="" style="text;html=1;align=center;verticalAlign=middle;resizable=0;points=[];autosize=1;" parent="1" vertex="1">
          <mxGeometry x="901" y="543" width="40" height="30" as="geometry" />
        </mxCell>
        <mxCell id="SaRvt7RB1hY5MqPePfqr-48" value="" style="endArrow=classic;html=1;rounded=0;" parent="1" edge="1">
          <mxGeometry width="50" height="50" relative="1" as="geometry">
            <mxPoint x="466" y="653" as="sourcePoint" />
            <mxPoint x="395" y="653" as="targetPoint" />
          </mxGeometry>
        </mxCell>
        <mxCell id="SaRvt7RB1hY5MqPePfqr-49" value="" style="text;html=1;align=center;verticalAlign=middle;resizable=0;points=[];autosize=1;" parent="1" vertex="1">
          <mxGeometry x="-164" y="436" width="40" height="30" as="geometry" />
        </mxCell>
        <mxCell id="SAjAbMaW2R_z1P-nCRgh-7" value="&lt;div style=&quot;font-size: 13px;&quot;&gt;&lt;font style=&quot;font-size: 13px;&quot; color=&quot;#67ab9f&quot;&gt;m_callback(&lt;/font&gt;&lt;font style=&quot;font-size: 13px;&quot;&gt;event&lt;font style=&quot;font-size: 13px;&quot; color=&quot;#b5739d&quot;&gt;,&lt;/font&gt;&lt;/font&gt;&lt;/div&gt;&lt;div style=&quot;font-size: 13px;&quot;&gt;&lt;font style=&quot;font-size: 13px;&quot; color=&quot;#b5739d&quot;&gt;resp_data&lt;/font&gt;&lt;font style=&quot;font-size: 13px;&quot; color=&quot;#67ab9f&quot;&gt;)&lt;/font&gt;&lt;/div&gt;" style="rounded=1;whiteSpace=wrap;html=1;" vertex="1" parent="1">
          <mxGeometry x="256" y="618" width="136" height="60" as="geometry" />
        </mxCell>
        <mxCell id="SaRvt7RB1hY5MqPePfqr-34" value="&lt;font color=&quot;#b5739d&quot;&gt;&lt;b&gt;resp_data&lt;/b&gt;&lt;/font&gt;" style="text;html=1;strokeColor=none;fillColor=none;align=center;verticalAlign=middle;whiteSpace=wrap;rounded=0;" parent="1" vertex="1">
          <mxGeometry x="146" y="652" width="60" height="30" as="geometry" />
        </mxCell>
        <mxCell id="SAjAbMaW2R_z1P-nCRgh-9" value="&lt;div align=&quot;left&quot;&gt;&lt;ul&gt;&lt;li&gt;Init()&lt;/li&gt;&lt;li&gt;&lt;div&gt;Add_taf_handler&lt;/div&gt;&lt;/li&gt;&lt;li&gt;...&lt;br&gt;&lt;/li&gt;&lt;/ul&gt;&lt;/div&gt;" style="rounded=0;whiteSpace=wrap;html=1;align=left;dashed=1;dashPattern=8 8;" vertex="1" parent="1">
          <mxGeometry x="463" y="200" width="196" height="70" as="geometry" />
        </mxCell>
        <mxCell id="SAjAbMaW2R_z1P-nCRgh-15" value="" style="endArrow=none;dashed=1;html=1;rounded=0;fillColor=#dae8fc;strokeColor=#6c8ebf;strokeWidth=1;dashPattern=12 12;" edge="1" parent="1">
          <mxGeometry width="50" height="50" relative="1" as="geometry">
            <mxPoint x="686" y="740" as="sourcePoint" />
            <mxPoint x="686" y="50" as="targetPoint" />
          </mxGeometry>
        </mxCell>
        <mxCell id="SAjAbMaW2R_z1P-nCRgh-18" value="" style="edgeStyle=segmentEdgeStyle;endArrow=classic;html=1;curved=0;rounded=0;endSize=8;startSize=8;entryX=1;entryY=0.5;entryDx=0;entryDy=0;" edge="1" parent="1" target="SaRvt7RB1hY5MqPePfqr-31">
          <mxGeometry width="50" height="50" relative="1" as="geometry">
            <mxPoint x="812" y="550" as="sourcePoint" />
            <mxPoint x="656" y="650" as="targetPoint" />
            <Array as="points">
              <mxPoint x="812" y="650" />
            </Array>
          </mxGeometry>
        </mxCell>
        <mxCell id="SAjAbMaW2R_z1P-nCRgh-19" value="&lt;b&gt;&lt;font style=&quot;font-size: 14px;&quot;&gt;Handler&lt;/font&gt;&lt;/b&gt;" style="shape=ext;double=1;rounded=1;whiteSpace=wrap;html=1;fillColor=#fad9d5;strokeColor=#ae4132;" vertex="1" parent="1">
          <mxGeometry x="506" y="110" width="110" height="70" as="geometry" />
        </mxCell>
        <mxCell id="SAjAbMaW2R_z1P-nCRgh-20" value="&lt;font style=&quot;font-size: 13px;&quot;&gt;&lt;b&gt;handler_get_xxx_data()&lt;/b&gt;&lt;/font&gt;" style="rounded=1;whiteSpace=wrap;html=1;" vertex="1" parent="1">
          <mxGeometry x="467" y="298" width="180" height="60" as="geometry" />
        </mxCell>
      </root>
    </mxGraphModel>
  </diagram>
</mxfile>
